PathFileType	4	(X/Y/Z)	C:/Users/opensim2020/Desktop/walking_exp_matlab/subject03_walking06_straight_04.trc	
DataRate	CameraRate	NumFrames	NumMarkers	Units	OrigDataRate	OrigDataStartFrame	OrigNumFrames	
100.00	100.00	4	44	mm	100.00	2798	278	
Frame#	Time	LFHD			RFHD			LBHD			RBHD			C7			T10			CLAV			STRN			RBAK			LSHO			LUPA			LELB			LFRM			LWRA			LWRB			LFIN			RSHO			RUPA			RELB			RFRM			RWRA			RWRB			RFIN			LASI			RASI			LPSI			RPSI			LTHI			LKNE			LTIB			LANK			LHEE			LTOE			RTHI			RKNE			RTIB			RANK			RHEE			RTOE			*39			*40			*41			*42			*43			
		X1	Y1	Z1	X2	Y2	Z2	X3	Y3	Z3	X4	Y4	Z4	X5	Y5	Z5	X6	Y6	Z6	X7	Y7	Z7	X8	Y8	Z8	X9	Y9	Z9	X10	Y10	Z10	X11	Y11	Z11	X12	Y12	Z12	X13	Y13	Z13	X14	Y14	Z14	X15	Y15	Z15	X16	Y16	Z16	X17	Y17	Z17	X18	Y18	Z18	X19	Y19	Z19	X20	Y20	Z20	X21	Y21	Z21	X22	Y22	Z22	X23	Y23	Z23	X24	Y24	Z24	X25	Y25	Z25	X26	Y26	Z26	X27	Y27	Z27	X28	Y28	Z28	X29	Y29	Z29	X30	Y30	Z30	X31	Y31	Z31	X32	Y32	Z32	X33	Y33	Z33	X34	Y34	Z34	X35	Y35	Z35	X36	Y36	Z36	X37	Y37	Z37	X38	Y38	Z38	X39	Y39	Z39	X40	Y40	Z40	X41	Y41	Z41	X42	Y42	Z42	X43	Y43	Z43	X44	Y44	Z44	

70	0.690	-916.44885	642.62134	1605.90881	-1049.11023	649.29816	1613.42310	-914.65497	775.65216	1578.46545	-1045.68921	776.97534	1584.89063	-977.69232	823.12311	1416.91455	-987.52655	859.33411	1101.61487	-978.52448	701.95190	1338.93701	-977.70221	657.33118	1174.94128	-1081.24963	875.66193	1241.51819	-821.38251	750.82959	1372.48462	-760.84039	781.39105	1171.62317	-757.54803	791.02911	1047.57727	-763.38324	787.87775	917.11273	-798.30292	793.58087	798.78809	-744.96234	812.09381	806.19489	-760.36554	819.54877	721.31183	-1137.72607	745.42291	1366.34546	-1215.56604	707.97284	1151.81311	-1229.77808	665.48962	1048.58960	-1227.07947	601.08569	928.37671	-1186.69641	539.00378	854.62476	-1230.01819	564.32690	835.25690	-1217.56018	513.26831	783.04846	-874.79602	689.07568	939.70251	-1110.28772	697.68170	932.39886	-918.58441	853.75110	964.16943	-1068.54028	855.21906	969.13745	-833.50732	710.50739	639.44104	-875.71741	671.38593	466.50092	-874.49377	685.63361	272.12381	-913.66925	656.89752	63.88603	-952.17694	691.40845	29.65971	-929.23059	501.45752	32.68826	-1153.21558	794.68787	641.03674	-1128.45886	813.84198	461.54269	-1126.63867	951.03900	319.57578	-1077.64099	1085.48547	151.56660	-1021.38586	1133.00867	151.53273	-1062.25708	1000.95734	31.42770	-965.04834	718.78455	1676.24207												 
71	0.700	-916.04297	632.87360	1606.99011	-1048.63770	639.58862	1614.59351	-914.15485	765.89954	1579.98035	-1045.15759	767.37488	1586.51270	-976.82703	813.62122	1418.13135	-986.58032	849.28839	1103.10974	-978.22064	692.31842	1340.51379	-977.66040	647.28400	1176.66663	-1080.68469	865.92072	1243.05823	-821.09558	740.40057	1374.36621	-759.96252	769.56494	1173.65686	-756.84973	778.65826	1049.62708	-762.76721	774.69470	919.26404	-797.72717	779.92651	800.76282	-744.11670	798.01624	808.13855	-759.85321	806.29999	723.01685	-1136.97534	736.86157	1368.49976	-1214.20190	700.73505	1153.37244	-1228.06726	659.63800	1049.74988	-1225.87097	596.50543	928.86163	-1185.90417	534.91608	854.19604	-1229.10107	560.86066	835.25854	-1216.63428	510.62097	781.76215	-873.53741	679.15466	941.55304	-1108.95508	687.41852	934.23187	-917.73358	843.19232	966.03894	-1067.54700	844.79968	970.81049	-832.39807	704.20764	639.98053	-874.85571	666.67157	466.70990	-873.81641	682.54913	272.65790	-913.72858	656.57074	64.01782	-951.99622	691.36639	29.65530	-929.19421	501.22705	32.34367	-1153.12817	780.24518	640.99518	-1129.34143	795.72021	460.91443	-1127.02747	935.86993	322.11670	-1077.63098	1074.34216	157.84619	-1020.55438	1120.70361	161.07895	-1061.23608	999.68713	31.97749	-959.84924	707.47028	1683.59094												 
72	0.710	-915.65369	623.26013	1607.75159	-1048.22742	630.07672	1615.47412	-913.67566	756.38464	1581.10571	-1044.70569	757.91333	1587.81348	-975.95294	804.20514	1419.14526	-985.28455	839.30536	1104.33569	-977.97174	682.75958	1341.72705	-977.59644	637.32788	1178.08667	-1080.13440	856.27014	1244.29028	-820.85455	729.97308	1375.97791	-759.05634	757.97565	1175.51746	-755.98279	766.37695	1051.45227	-761.99658	761.36578	921.16022	-797.07733	765.90326	802.52814	-743.26624	783.54102	809.75482	-759.24261	792.42523	724.43280	-1136.34375	728.40857	1370.28284	-1213.04834	693.76038	1154.60474	-1226.70911	654.11890	1050.49927	-1224.88208	592.16962	929.03406	-1185.29797	530.99261	853.55145	-1228.37183	557.49683	834.95624	-1215.80408	508.26346	780.13568	-872.30396	669.24915	942.73596	-1107.75549	677.41602	935.87494	-916.54614	832.71149	967.49084	-1066.29932	834.73810	972.23889	-831.47723	698.16620	640.05835	-874.20416	661.96130	466.48825	-873.63696	679.52753	272.94333	-914.18335	656.20673	63.92496	-952.07214	691.26813	29.76016	-929.36969	500.86453	31.99566	-1152.99573	765.66791	640.66846	-1130.21753	777.14337	460.14948	-1126.97583	919.85278	324.43234	-1078.04248	1061.71521	163.33444	-1020.42029	1107.42932	170.58937	-1060.96155	997.82794	33.00467	-964.08679	698.79395	1678.66565												 
73	0.720	-915.30353	613.78345	1608.28235	-1047.92163	620.74329	1616.18811	-913.22888	746.88745	1581.86169	-1044.21313	748.55719	1588.71265	-975.16870	794.81036	1419.78711	-983.75787	829.32501	1105.08191	-977.73669	673.28333	1342.64368	-977.47974	627.48254	1179.22644	-1079.44727	846.74396	1245.10376	-820.65424	719.66852	1377.28894	-758.04395	746.25525	1177.07861	-754.92181	753.98907	1052.96680	-761.09961	747.83459	922.74927	-796.21411	751.42334	804.00525	-742.32068	768.74463	811.07440	-758.51184	777.96051	725.56805	-1135.68164	719.82159	1371.35754	-1212.17627	686.98785	1155.42224	-1225.74438	648.82324	1050.81458	-1224.13269	588.00952	928.76965	-1184.90894	527.12292	852.50879	-1227.77478	554.25659	834.26129	-1215.05542	506.02689	778.06750	-871.15521	659.43463	943.27966	-1106.78247	667.83337	937.21564	-915.18286	822.37744	968.52124	-1064.97180	825.04669	973.30341	-830.60535	692.07532	640.14380	-873.57452	657.17377	466.19205	-873.54437	676.85376	273.10806	-914.48523	655.93372	63.98166	-952.35089	691.14783	29.81845	-929.53784	500.59305	31.57134	-1152.72070	751.14673	640.08441	-1130.63879	758.53412	459.23431	-1127.08777	902.89905	326.25546	-1078.56946	1048.58789	168.73335	-1021.08710	1093.97913	179.97415	-1060.60742	993.30841	35.73586	-958.58746	688.46997	1685.44861												 
